HIERARCHY
ROOT Hips
{
	OFFSET -21.699400 33.110794 0.000000
	CHANNELS 6 Xposition Yposition Zposition Xrotation Yrotation Zrotation
	JOINT Bip01_Pelvis
	{
		OFFSET 0.000000 0.000000 -0.000000
		CHANNELS 3 Xrotation Yrotation Zrotation
		JOINT BN_Tail_01
		{
			OFFSET -6.267597 2.101337 0.000003
			CHANNELS 3 Xrotation Yrotation Zrotation
			JOINT BN_Tail_02
			{
				OFFSET -13.503519 -3.535381 0.000036
				CHANNELS 3 Xrotation Yrotation Zrotation
				JOINT BN_Tail_03
				{
					OFFSET -10.376980 -2.089394 0.000024
					CHANNELS 3 Xrotation Yrotation Zrotation
					JOINT BN_Tail_04
					{
						OFFSET -10.377483 -2.298637 0.000021
						CHANNELS 3 Xrotation Yrotation Zrotation
						End Site
						{
							OFFSET 2.298733 -10.377460 -0.000075
						}
					}
				}
			}
		}
		JOINT Bip01_Spine
		{
			OFFSET 6.414534 3.071911 -0.000026
			CHANNELS 3 Xrotation Yrotation Zrotation
			JOINT Bip01_R_Thigh
			{
				OFFSET -6.414526 -3.071896 5.427406
				CHANNELS 3 Xrotation Yrotation Zrotation
				JOINT Bip01_R_Calf
				{
					OFFSET -0.354433 -13.652294 -0.244455
					CHANNELS 3 Xrotation Yrotation Zrotation
					JOINT Bip01_R_HorseLink
					{
						OFFSET -4.871281 -7.637997 -0.538493
						CHANNELS 3 Xrotation Yrotation Zrotation
						JOINT Bip01_R_Foot
						{
							OFFSET 0.440022 -8.126162 -0.089540
							CHANNELS 3 Xrotation Yrotation Zrotation
							JOINT Bip01_R_Toe0
							{
								OFFSET 6.340572 -3.684492 0.585200
								CHANNELS 3 Xrotation Yrotation Zrotation
								JOINT Bip01_R_Toe0Nub
								{
									OFFSET 0.835005 0.014946 0.077900
									CHANNELS 3 Xrotation Yrotation Zrotation
									End Site
									{
										OFFSET -0.015009 0.838629 -0.000001
									}
								}
							}
						}
					}
				}
			}
			JOINT Bip01_L_Thigh
			{
				OFFSET -6.414551 -3.071918 -5.427347
				CHANNELS 3 Xrotation Yrotation Zrotation
				JOINT Bip01_L_Calf
				{
					OFFSET -0.354425 -13.652296 0.244489
					CHANNELS 3 Xrotation Yrotation Zrotation
					JOINT Bip01_L_HorseLink
					{
						OFFSET -4.871290 -7.637988 0.538531
						CHANNELS 3 Xrotation Yrotation Zrotation
						JOINT Bip01_L_Foot
						{
							OFFSET 0.440018 -8.126154 0.089561
							CHANNELS 3 Xrotation Yrotation Zrotation
							JOINT Bip01_L_Toe0
							{
								OFFSET 6.340565 -3.684505 -0.585207
								CHANNELS 3 Xrotation Yrotation Zrotation
								JOINT Bip01_L_Toe0Nub
								{
									OFFSET 0.835007 0.014945 -0.077903
									CHANNELS 3 Xrotation Yrotation Zrotation
									End Site
									{
										OFFSET 0.015009 -0.838632 0.000002
									}
								}
							}
						}
					}
				}
			}
			JOINT Bip01_Spine1
			{
				OFFSET 12.170003 0.000874 -0.000022
				CHANNELS 3 Xrotation Yrotation Zrotation
				JOINT Bip01_Spine2
				{
					OFFSET 13.264889 -0.625374 -0.000025
					CHANNELS 3 Xrotation Yrotation Zrotation
					JOINT Bip01_Neck
					{
						OFFSET 11.255137 3.040993 -0.000026
						CHANNELS 3 Xrotation Yrotation Zrotation
						JOINT Bip01_R_Clavicle
						{
							OFFSET -7.911091 0.784874 1.177936
							CHANNELS 3 Xrotation Yrotation Zrotation
							JOINT Bip01_R_UpperArm
							{
								OFFSET 6.724497 -10.472103 4.564085
								CHANNELS 3 Xrotation Yrotation Zrotation
								JOINT Bip01_R_Forearm
								{
									OFFSET -5.175943 -11.735615 -1.276544
									CHANNELS 3 Xrotation Yrotation Zrotation
									JOINT Bip01_R_Hand
									{
										OFFSET 1.157803 -11.170619 -0.845372
										CHANNELS 3 Xrotation Yrotation Zrotation
										JOINT Bip01_R_Finger0
										{
											OFFSET 1.160215 -3.813930 -0.043723
											CHANNELS 3 Xrotation Yrotation Zrotation
											JOINT Bip01_R_Finger0Nub
											{
												OFFSET 6.392904 0.010766 1.539281
												CHANNELS 3 Xrotation Yrotation Zrotation
												End Site
												{
													OFFSET -1.539301 0.009228 6.392900
												}
											}
										}
									}
								}
							}
						}
						JOINT Bip01_L_Clavicle
						{
							OFFSET -7.911097 0.784866 -1.177909
							CHANNELS 3 Xrotation Yrotation Zrotation
							JOINT Bip01_L_UpperArm
							{
								OFFSET 6.724487 -10.472111 -4.564073
								CHANNELS 3 Xrotation Yrotation Zrotation
								JOINT Bip01_L_Forearm
								{
									OFFSET -5.175933 -11.735605 1.276591
									CHANNELS 3 Xrotation Yrotation Zrotation
									JOINT Bip01_L_Hand
									{
										OFFSET 1.157809 -11.170620 0.845402
										CHANNELS 3 Xrotation Yrotation Zrotation
										JOINT Bip01_L_Finger0
										{
											OFFSET 1.160225 -3.813934 0.043731
											CHANNELS 3 Xrotation Yrotation Zrotation
											JOINT Bip01_L_Finger0Nub
											{
												OFFSET 6.392891 0.010768 -1.539303
												CHANNELS 3 Xrotation Yrotation Zrotation
												End Site
												{
													OFFSET 1.539320 -0.009209 6.392887
												}
											}
										}
									}
								}
							}
						}
						JOINT Bip01_Neck1
						{
							OFFSET 4.062487 1.040154 -0.000009
							CHANNELS 3 Xrotation Yrotation Zrotation
							JOINT Bip01_Head
							{
								OFFSET 4.038336 1.104565 -0.000007
								CHANNELS 3 Xrotation Yrotation Zrotation
								JOINT BN_Eye_R_01
								{
									OFFSET 7.606293 0.288517 2.553589
									CHANNELS 3 Xrotation Yrotation Zrotation
									End Site
									{
										OFFSET -4.288883 6.414886 -3.071564
									}
								}
								JOINT BN_Eye_L_01
								{
									OFFSET 7.606293 0.288506 -2.553737
									CHANNELS 3 Xrotation Yrotation Zrotation
									End Site
									{
										OFFSET 4.288876 -6.414898 -3.071546
									}
								}
								JOINT BN_Ear_R_01
								{
									OFFSET 3.540665 2.802040 4.456320
									CHANNELS 3 Xrotation Yrotation Zrotation
									End Site
									{
										OFFSET -5.134806 -3.798656 5.308839
									}
								}
								JOINT BN_Ear_L_01
								{
									OFFSET 3.540634 2.802013 -4.456186
									CHANNELS 3 Xrotation Yrotation Zrotation
									End Site
									{
										OFFSET 5.134834 3.798668 5.308802
									}
								}
								JOINT BN_Beard_L_01
								{
									OFFSET 10.417686 -4.495251 -2.320558
									CHANNELS 3 Xrotation Yrotation Zrotation
									End Site
									{
										OFFSET 0.000004 8.299625 0.309834
									}
								}
								JOINT BN_Beard_R_01
								{
									OFFSET 10.417683 -4.495232 2.320337
									CHANNELS 3 Xrotation Yrotation Zrotation
									End Site
									{
										OFFSET 0.000027 -8.299625 0.309875
									}
								}
								JOINT BN_Mouth_0
								{
									OFFSET 0.528744 -1.771828 -0.000001
									CHANNELS 3 Xrotation Yrotation Zrotation
									JOINT BN_Tongue_01
									{
										OFFSET 5.415756 -2.844566 0.000003
										CHANNELS 3 Xrotation Yrotation Zrotation
										JOINT BN_Tongue_02
										{
											OFFSET 1.708946 -1.094620 -0.000000
											CHANNELS 3 Xrotation Yrotation Zrotation
											End Site
											{
												OFFSET 0.586235 1.942940 -0.000006
											}
										}
									}
								}
								JOINT Bip01_HeadNub
								{
									OFFSET 11.127171 -6.094509 -0.000016
									CHANNELS 3 Xrotation Yrotation Zrotation
									End Site
									{
										OFFSET -3.989738 -7.284351 0.000036
									}
								}
							}
						}
					}
				}
			}
		}
	}
}
MOTION
Frames: 6
Frame Time: 0.033333
-22.732841 26.473055 -0.000000 0.148074 -3.063469 3.870052 0.152353 -3.829548 1.386219 3.958587 -1.672346 19.448236 -2.045455 -5.529851 -29.456960 4.093161 5.560983 -30.991601 9.107843 20.581259 -32.800085 -1.184518 -0.628771 -23.474197 -8.190783 2.286503 18.986531 3.942679 -0.950708 -47.770142 -2.078421 -0.899377 26.128154 4.304649 4.743051 21.374652 0.000349 -0.000323 -0.003790 -0.000000 0.000000 0.000000 2.902751 14.831276 67.470863 -4.894072 1.907120 -63.227888 2.212850 1.002275 28.061941 -4.634227 0.276352 -14.868926 0.047042 -2.645969 -0.001853 0.003744 0.000048 0.039398 -0.442210 4.077987 11.349970 -2.001474 4.277435 -1.598528 1.378539 -1.119889 3.296061 -11.489822 -3.219479 -11.446519 5.683679 7.433080 -39.114349 0.560549 -7.599391 81.518280 -5.840465 0.633014 13.985557 17.511396 -0.921628 -41.970758 -0.000094 0.039574 -0.000080 14.794248 3.052627 -4.387873 11.083915 -5.451684 52.401782 1.133953 3.042743 32.221984 5.455817 14.191687 -17.226623 -17.317555 5.260400 -59.347159 -0.000009 -0.000006 0.000004 0.788119 1.316970 -10.666818 -1.441572 -0.184620 29.989329 -0.019228 0.002017 -0.003387 -0.002258 -0.003443 -0.001098 0.003748 0.000855 0.000325 0.003049 0.003026 -0.004137 -0.898001 -0.504258 1.997125 2.965654 -1.125521 0.072937 -0.033405 0.015055 -7.995720 0.000038 0.000028 -0.000046 0.031777 -0.014641 -0.003477 -0.000008 0.000007 -0.000019 
-23.254841 26.161022 0.095634 0.137450 -2.978691 4.146794 0.152689 -3.814860 0.926003 3.938875 -1.608636 19.414599 -2.097418 -5.683835 -28.903462 4.005322 5.190188 -30.259142 9.072370 20.470360 -32.692356 -1.218268 -0.729641 -22.852181 -8.030409 2.258827 20.766343 4.234903 -1.192470 -52.105498 -2.239046 -1.023145 28.445921 4.042848 4.728647 21.139736 0.000113 -0.000328 0.020287 -0.000000 -0.000000 0.000000 3.049127 15.165223 69.269743 -4.954024 1.988003 -64.377695 2.170978 0.969457 27.453935 -4.722889 0.194316 -15.407396 0.047627 -2.645958 0.012373 0.003744 0.000048 0.039398 -0.436742 4.049955 10.752923 -2.015950 4.281283 -1.687156 1.377914 -1.068522 3.657340 -11.601385 -3.228278 -11.882312 6.341346 7.507351 -38.250794 0.747970 -7.777232 84.063632 -6.203878 1.585671 11.525966 17.694495 -1.030013 -42.544060 -0.000094 0.039574 -0.000080 14.928758 2.923084 -4.738258 11.265500 -4.608351 55.040612 1.110613 2.801227 29.845229 5.034851 14.425981 -16.812029 -17.408846 5.359747 -59.761683 -0.000009 -0.000007 0.000004 0.776261 1.417713 -10.143328 -1.413272 -0.139222 30.279397 -0.019225 0.002018 -0.003392 -0.002257 -0.003443 -0.001101 0.146497 0.373604 -0.500538 -0.041704 -0.326275 -0.496339 -1.063608 -0.448710 1.997665 2.644814 -0.616317 0.001621 0.028617 -0.020518 -7.910646 0.000038 0.000028 -0.000046 0.031777 -0.014641 -0.003475 -0.000008 0.000007 -0.000020 
-23.764977 25.847031 0.201917 0.127924 -2.888307 4.384882 0.148042 -3.734259 -0.133568 3.853567 -1.461174 19.307517 -2.171689 -5.957596 -27.472184 3.756378 4.237894 -28.363797 9.037825 20.361547 -32.586839 -1.262210 -0.944885 -21.189815 -7.788835 2.354209 21.958034 4.491116 -1.438114 -56.161760 -2.393745 -1.152613 30.751369 3.760707 4.685937 20.827562 -0.000113 -0.000333 0.043919 -0.000000 0.000000 0.000000 3.344657 15.518777 70.582827 -5.006189 2.061243 -65.404580 2.127765 0.936330 26.831654 -4.843557 0.124067 -16.002459 0.048213 -2.645948 0.026318 0.003744 0.000048 0.039398 -0.417583 3.942246 9.314145 -2.026046 4.238094 -1.830322 1.359140 -0.940706 4.433763 -11.700327 -3.225046 -12.717128 7.293229 7.738219 -36.845913 0.974960 -7.972742 87.015101 -6.682761 2.881291 8.774425 17.885820 -1.162921 -43.221560 -0.000094 0.039573 -0.000080 15.034681 2.604513 -5.461281 11.545531 -3.059291 58.041397 1.080547 2.581601 27.674204 4.233117 14.673336 -16.672330 -17.446974 5.403165 -59.954034 -0.000009 -0.000007 0.000004 0.729998 1.611286 -8.840911 -1.305911 0.000915 30.540668 -0.019236 0.002007 -0.003428 -0.002254 -0.003442 -0.001092 0.530855 1.298206 -1.798760 -0.207843 -1.189893 -1.781043 -0.252035 -0.797231 1.967594 2.328039 -0.119009 -0.064815 0.022978 -0.016402 -7.679055 0.000039 0.000028 -0.000050 0.031777 -0.014641 -0.003473 -0.000008 0.000007 -0.000022 
-24.279278 25.525837 0.315628 0.116398 -2.795936 4.615138 0.136870 -3.589582 -1.617888 3.716843 -1.246539 19.110164 -2.246525 -6.337187 -25.380670 3.492483 2.831130 -25.595178 9.003185 20.251605 -32.480456 -1.303764 -1.262995 -18.711909 -7.480923 2.543722 22.672381 4.723186 -1.691080 -60.064123 -2.545774 -1.290711 33.098380 3.464181 4.610662 20.433189 -0.000329 -0.000340 0.067743 0.000000 0.000000 0.000000 3.764888 15.876732 71.503324 -5.051325 2.126936 -66.314833 2.081344 0.901564 26.168784 -4.974909 0.061332 -16.667169 0.048785 -2.645937 0.040400 0.003744 0.000049 0.039398 -0.389580 3.761968 7.185757 -2.031077 4.157838 -2.077744 1.323975 -0.758666 5.505572 -11.795193 -3.210456 -13.849780 8.513173 8.172970 -34.727270 1.231436 -8.170680 90.206814 -7.238112 4.563303 5.663356 18.089059 -1.323736 -44.015771 -0.000094 0.039574 -0.000080 15.104521 2.148197 -6.446634 11.782812 -0.893636 61.520777 1.038168 2.342975 25.300851 3.089965 14.897431 -16.500702 -17.485329 5.447140 -60.148265 -0.000009 -0.000008 0.000004 0.655087 1.902710 -6.966305 -1.139361 0.189839 30.790486 -0.019230 0.002022 -0.003405 -0.002257 -0.003442 -0.001098 1.276601 2.691818 -3.849364 -0.596224 -2.537160 -3.807520 0.567614 -1.149335 1.942470 2.009932 0.384718 -0.130199 0.016281 -0.011564 -7.315628 0.000038 0.000028 -0.000050 0.031777 -0.014641 -0.003471 -0.000008 0.000006 -0.000026 
-24.798634 25.201534 0.430391 0.104400 -2.702688 4.847604 0.131680 -3.391001 -3.339517 3.544774 -0.982744 18.805951 -2.301544 -6.790435 -22.871437 3.352519 1.116306 -22.274263 8.967021 20.137119 -32.372136 -1.316783 -1.661816 -15.685529 -7.126977 2.797282 22.972440 4.924832 -1.948517 -63.817927 -2.694750 -1.437714 35.489718 3.166162 4.509166 19.951247 -0.000542 -0.000346 0.091822 -0.000000 -0.000000 0.000000 4.278435 16.211193 72.073987 -5.088163 2.182260 -67.073851 2.031025 0.864802 25.456479 -5.127274 -0.012888 -17.414621 0.049396 -2.645926 0.054618 0.003744 0.000049 0.039398 -0.366018 3.517569 4.544318 -2.029830 4.036743 -2.472315 1.271353 -0.533782 6.733920 -11.875875 -3.196343 -15.130923 9.917897 8.872924 -31.727257 1.497207 -8.353151 93.382531 -7.798898 6.625702 2.180216 18.303082 -1.514177 -44.914125 -0.000094 0.039575 -0.000080 15.163642 1.605548 -7.572337 11.845792 1.737920 65.548226 0.971267 2.047078 22.330260 1.672605 15.084089 -15.983686 -17.525046 5.523419 -60.517546 -0.000009 -0.000007 0.000004 0.546578 2.232633 -4.714878 -0.929250 0.439926 31.063939 -0.019252 0.002029 -0.003412 -0.002254 -0.003441 -0.001098 2.083148 4.071793 -5.943344 -1.038698 -3.883842 -5.867938 2.007261 -1.967708 1.891633 1.689602 0.893952 -0.192754 0.028417 -0.019955 -6.838783 0.000038 0.000028 -0.000046 0.031777 -0.014641 -0.003477 -0.000008 0.000007 -0.000022 
-25.308769 24.887535 0.536674 0.093826 -2.612449 5.088986 0.123014 -3.137898 -5.059657 3.360226 -0.697096 18.393179 -2.314135 -7.266058 -20.284205 3.414755 -0.669465 -18.843155 8.790905 19.683989 -32.163053 -1.293557 -2.106611 -12.473180 -6.760204 3.076006 22.935760 5.102306 -2.200313 -67.318693 -2.834757 -1.587774 37.834412 2.884432 4.391293 19.395231 -0.000744 -0.000354 0.115449 -0.000000 -0.000001 0.000000 4.830886 16.487836 72.340016 -5.115152 2.223823 -67.639766 1.979148 0.827911 24.728893 -5.252008 -0.069944 -18.223558 0.049982 -2.645913 0.068563 0.003744 0.000049 0.039398 -0.356921 3.231949 1.674496 -2.022234 3.893908 -3.045682 1.209602 -0.294667 7.939709 -11.943784 -3.195265 -16.388919 11.318172 9.901887 -27.835710 1.741564 -8.502751 96.204451 -8.283719 8.920029 -1.536657 18.518135 -1.719212 -45.878582 -0.000094 0.039575 -0.000079 15.215206 1.051047 -8.675345 11.662518 4.546987 70.070105 0.862506 1.671256 18.499147 0.124246 15.224113 -14.836382 -17.607203 5.678276 -61.239059 -0.000009 -0.000007 0.000004 0.420382 2.569598 -2.385740 -0.712246 0.712928 31.344879 -0.019267 0.002048 -0.003414 -0.002255 -0.003441 -0.001098 3.178999 5.438334 -8.209928 -1.720270 -5.271574 -8.111849 3.418760 -2.771887 1.861589 1.375476 1.393658 -0.251397 0.023120 -0.016086 -6.286531 0.000038 0.000028 -0.000051 0.031777 -0.014641 -0.003473 -0.000008 0.000006 -0.000026 
